<svg width="128" height="128" viewBox="0 0 128 128" fill="none" xmlns="http://www.w3.org/2000/svg">
<rect width="128" height="128" rx="25" fill="#09090B"/>
<path d="M63.7429 63.7759L63.971 64L63.8855 63.6918C62.3589 58.214 59.4873 53.4699 55.7262 49.7194C51.7771 45.7816 46.8474 42.9391 41.4641 41.4929C36.2425 40.0901 30.5942 40.0009 25.0002 41.4998C26.4998 47.0962 29.4014 51.9424 33.2259 55.7619C38.6111 54.3227 44.3015 54.3195 49.6904 55.7552C54.8229 57.1226 59.6819 59.7953 63.7429 63.7759Z" fill="white"/>
<path d="M63.9715 19C59.8747 23.0968 57.1285 28.0328 55.7331 33.2547C59.672 37.1988 62.52 42.1253 63.9711 47.51C65.3531 52.6386 65.4679 58.1829 64.0511 63.6902L63.9714 63.9995L63.9715 64L63.9719 64.0001L64.1953 63.7716C68.176 59.7106 70.8487 54.8516 72.2161 49.7191C73.6518 44.3302 73.6486 38.6398 72.2094 33.2547C70.8135 28.0312 68.0666 23.0951 63.9715 19Z" fill="white"/>
<path d="M86.4784 41.4928C85.0322 46.8761 82.1897 51.8058 78.2519 55.7549C74.5014 59.516 69.7573 62.3876 64.2795 63.9143L63.9719 64.0001L64.2811 64.0799C69.7883 65.4967 75.3326 65.3818 80.4612 63.9998C85.846 62.5488 90.7725 59.7007 94.7166 55.7618C98.5422 51.9412 101.444 47.0942 102.943 41.5002C97.3462 40.0006 91.6984 40.0904 86.4784 41.4928Z" fill="white"/>
<path d="M63.9715 64L64.057 64.3082C65.5836 69.7861 68.4553 74.5302 72.2164 78.2806C76.1655 82.2185 81.0952 85.0609 86.4785 86.5071C91.7001 87.9099 97.3483 87.9991 102.942 86.5002C101.443 80.9039 98.5411 76.0576 94.7166 72.2382C89.3316 73.6773 83.6413 73.6806 78.2526 72.245C73.1199 70.8776 68.2608 68.2048 64.1996 64.2241L63.9723 64.0012L63.9715 64Z" fill="white"/>
<path d="M72.2095 94.7453C68.2706 90.8012 65.4225 85.8747 63.9715 80.4899C62.5894 75.3614 62.4746 69.8171 63.8914 64.3098L63.9712 64.0006L63.971 64L63.7472 64.2284C59.7664 68.2895 57.0937 73.1486 55.7263 78.2813C54.2907 83.67 54.294 89.3603 55.7331 94.7453C57.1291 99.9688 59.8759 104.905 63.971 109C68.0678 104.903 70.814 99.9672 72.2095 94.7453Z" fill="white"/>
<path d="M63.663 64.0857L63.971 64L63.6615 63.9201C58.1542 62.5033 52.6098 62.6181 47.4812 64.0002C42.0965 65.4513 37.17 68.2993 33.2259 72.2382C29.4003 76.0588 26.4989 80.9058 25 86.4998C30.5963 87.9993 36.2441 87.9096 41.4641 86.5072C42.9104 81.124 45.7528 76.1942 49.6906 72.2452C53.4411 68.484 58.1852 65.6124 63.663 64.0857Z" fill="white"/>
</svg>
