<svg width="218" height="250" viewBox="0 0 218 250" fill="none" xmlns="http://www.w3.org/2000/svg">
<path d="M108.433 124.378L109.066 125L108.829 124.144C104.588 108.928 96.6116 95.7497 86.164 85.3318C75.1944 74.3933 61.5006 66.4975 46.547 62.4802C32.0426 58.5836 16.353 58.3358 0.814137 62.4994C4.97953 78.0449 13.0396 91.5067 23.6633 102.116C38.622 98.1186 54.4288 98.1096 69.3979 102.098C83.6549 105.896 97.152 113.32 108.433 124.378Z" fill="url(#paint0_linear_237_117)"/>
<path d="M109.068 0C97.6876 11.38 90.0594 25.0911 86.1831 39.5963C97.1246 50.5522 105.036 64.2368 109.067 79.1945C112.905 93.4406 113.224 108.841 109.289 124.139L109.067 124.999L109.068 125L109.069 125L109.689 124.366C120.747 113.085 128.171 99.5878 131.969 85.3308C135.957 70.3618 135.948 54.555 131.951 39.5963C128.073 25.0868 120.443 11.3752 109.068 0Z" fill="url(#paint1_linear_237_117)"/>
<path d="M171.587 62.4799C167.57 77.4335 159.674 91.1273 148.735 102.097C138.317 112.545 125.139 120.521 109.923 124.762L109.069 125L109.928 125.222C125.226 129.157 140.626 128.838 154.872 124.999C169.83 120.969 183.515 113.058 194.471 102.116C205.097 91.5032 213.157 78.0394 217.321 62.5005C201.775 58.3351 186.087 58.5844 171.587 62.4799Z" fill="url(#paint2_linear_237_117)"/>
<path d="M109.068 125L109.305 125.856C113.546 141.072 121.523 154.25 131.97 164.668C142.94 175.607 156.634 183.503 171.587 187.52C186.091 191.416 201.781 191.664 217.32 187.501C213.154 171.955 205.094 158.493 194.471 147.884C179.512 151.881 163.706 151.89 148.737 147.903C134.48 144.104 120.982 136.68 109.701 125.623L109.07 125.003L109.068 125Z" fill="url(#paint3_linear_237_117)"/>
<path d="M131.951 210.404C121.009 199.448 113.098 185.763 109.068 170.805C105.229 156.559 104.91 141.159 108.845 125.861L109.067 125.002L109.066 125L108.445 125.634C97.3869 136.915 89.9626 150.413 86.1644 164.67C82.1766 179.639 82.1857 195.445 86.1833 210.404C90.0608 224.913 97.6911 238.625 109.066 250C120.446 238.62 128.075 224.909 131.951 210.404Z" fill="url(#paint4_linear_237_117)"/>
<path d="M108.211 125.238L109.066 125L108.206 124.778C92.9084 120.842 77.5075 121.161 63.2614 125C48.3037 129.031 34.6191 136.942 23.6632 147.884C13.0365 158.497 4.9771 171.961 0.813477 187.499C16.3588 191.665 32.0471 191.416 46.5472 187.52C50.5645 172.567 58.4601 158.873 69.3985 147.903C79.8164 137.456 92.9945 129.479 108.211 125.238Z" fill="url(#paint5_linear_237_117)"/>
<defs>
<linearGradient id="paint0_linear_237_117" x1="109.067" y1="0" x2="109.067" y2="250" gradientUnits="userSpaceOnUse">
<stop stop-color="#FAFAFA"/>
<stop offset="1" stop-color="#A1A1AA"/>
</linearGradient>
<linearGradient id="paint1_linear_237_117" x1="109.067" y1="0" x2="109.067" y2="250" gradientUnits="userSpaceOnUse">
<stop stop-color="#FAFAFA"/>
<stop offset="1" stop-color="#A1A1AA"/>
</linearGradient>
<linearGradient id="paint2_linear_237_117" x1="109.067" y1="0" x2="109.067" y2="250" gradientUnits="userSpaceOnUse">
<stop stop-color="#FAFAFA"/>
<stop offset="1" stop-color="#A1A1AA"/>
</linearGradient>
<linearGradient id="paint3_linear_237_117" x1="109.067" y1="0" x2="109.067" y2="250" gradientUnits="userSpaceOnUse">
<stop stop-color="#FAFAFA"/>
<stop offset="1" stop-color="#A1A1AA"/>
</linearGradient>
<linearGradient id="paint4_linear_237_117" x1="109.067" y1="0" x2="109.067" y2="250" gradientUnits="userSpaceOnUse">
<stop stop-color="#FAFAFA"/>
<stop offset="1" stop-color="#A1A1AA"/>
</linearGradient>
<linearGradient id="paint5_linear_237_117" x1="109.067" y1="0" x2="109.067" y2="250" gradientUnits="userSpaceOnUse">
<stop stop-color="#FAFAFA"/>
<stop offset="1" stop-color="#A1A1AA"/>
</linearGradient>
</defs>
</svg>
