<svg width="1200" height="400" viewBox="0 0 1200 400" fill="none" xmlns="http://www.w3.org/2000/svg">
<rect width="1200" height="400" rx="25" fill="#09090B"/>
<path d="M599.572 199.627L599.952 200L599.809 199.486C597.265 190.357 592.479 182.45 586.21 176.199C579.629 169.636 571.412 164.899 562.44 162.488C553.737 160.15 544.324 160.001 535 162.5C537.5 171.827 542.336 179.904 548.71 186.27C557.685 183.871 567.169 183.866 576.151 186.259C584.705 188.538 592.803 192.992 599.572 199.627Z" fill="url(#paint0_linear_241_18)"/>
<path d="M599.953 125C593.124 131.828 588.548 140.055 586.222 148.758C592.787 155.331 597.533 163.542 599.952 172.517C602.255 181.064 602.447 190.305 600.085 199.484L599.952 199.999L599.953 200L599.953 200L600.326 199.619C606.96 192.851 611.415 184.753 613.694 176.198C616.086 167.217 616.081 157.733 613.682 148.758C611.356 140.052 606.778 131.825 599.953 125Z" fill="url(#paint1_linear_241_18)"/>
<path d="M637.464 162.488C635.054 171.46 630.316 179.676 623.753 186.258C617.502 192.527 609.596 197.313 600.466 199.857L599.953 200L600.468 200.133C609.647 202.494 618.888 202.303 627.435 200C636.41 197.581 644.621 192.835 651.194 186.27C657.57 179.902 662.406 171.824 664.904 162.5C655.577 160.001 646.164 160.151 637.464 162.488Z" fill="url(#paint2_linear_241_18)"/>
<path d="M599.953 200L600.095 200.514C602.639 209.643 607.425 217.55 613.694 223.801C620.276 230.364 628.492 235.102 637.464 237.512C646.167 239.85 655.581 239.999 664.904 237.5C662.405 228.173 657.569 220.096 651.194 213.73C642.219 216.129 632.736 216.134 623.754 213.742C615.2 211.463 607.101 207.008 600.333 200.374L599.954 200.002L599.953 200Z" fill="url(#paint3_linear_241_18)"/>
<path d="M613.682 251.242C607.118 244.669 602.371 236.458 599.952 227.483C597.649 218.936 597.458 209.695 599.819 200.516L599.952 200.001L599.952 200L599.579 200.381C592.944 207.149 588.49 215.248 586.211 223.802C583.818 232.783 583.823 242.267 586.222 251.242C588.548 259.948 593.127 268.175 599.952 275C606.78 268.172 611.357 259.945 613.682 251.242Z" fill="url(#paint4_linear_241_18)"/>
<path d="M599.438 200.143L599.952 200L599.436 199.867C590.257 197.505 581.016 197.697 572.469 200C563.494 202.419 555.283 207.165 548.71 213.73C542.334 220.098 537.498 228.176 535 237.5C544.327 239.999 553.74 239.849 562.44 237.512C564.851 228.54 569.588 220.324 576.151 213.742C582.402 207.473 590.309 202.687 599.438 200.143Z" fill="url(#paint5_linear_241_18)"/>
<defs>
<linearGradient id="paint0_linear_241_18" x1="599.952" y1="125" x2="599.952" y2="275" gradientUnits="userSpaceOnUse">
<stop stop-color="#FAFAFA"/>
<stop offset="1" stop-color="#A1A1AA"/>
</linearGradient>
<linearGradient id="paint1_linear_241_18" x1="599.952" y1="125" x2="599.952" y2="275" gradientUnits="userSpaceOnUse">
<stop stop-color="#FAFAFA"/>
<stop offset="1" stop-color="#A1A1AA"/>
</linearGradient>
<linearGradient id="paint2_linear_241_18" x1="599.952" y1="125" x2="599.952" y2="275" gradientUnits="userSpaceOnUse">
<stop stop-color="#FAFAFA"/>
<stop offset="1" stop-color="#A1A1AA"/>
</linearGradient>
<linearGradient id="paint3_linear_241_18" x1="599.952" y1="125" x2="599.952" y2="275" gradientUnits="userSpaceOnUse">
<stop stop-color="#FAFAFA"/>
<stop offset="1" stop-color="#A1A1AA"/>
</linearGradient>
<linearGradient id="paint4_linear_241_18" x1="599.952" y1="125" x2="599.952" y2="275" gradientUnits="userSpaceOnUse">
<stop stop-color="#FAFAFA"/>
<stop offset="1" stop-color="#A1A1AA"/>
</linearGradient>
<linearGradient id="paint5_linear_241_18" x1="599.952" y1="125" x2="599.952" y2="275" gradientUnits="userSpaceOnUse">
<stop stop-color="#FAFAFA"/>
<stop offset="1" stop-color="#A1A1AA"/>
</linearGradient>
</defs>
</svg>
